<?xml version="1.0" encoding="utf-8"?>
<!-- Generator: Adobe Illustrator 26.2.1, SVG Export Plug-In . SVG Version: 6.00 Build 0)  -->
<svg version="1.1" id="Layer_2" xmlns="http://www.w3.org/2000/svg" xmlns:xlink="http://www.w3.org/1999/xlink" x="0px" y="0px"
	 viewBox="0 0 1587.2 1800" enable-background="new 0 0 1587.2 1800" xml:space="preserve">
<polygon points="0,0 1587.2,0 1442.3,1619.9 794.5,1800 144.4,1620.1 "/>
<polygon fill="#1E1E1E" points="1442.6,132.5 793.6,132.5 794.5,1662 1318.8,1516.7 "/>
<g>
	<polygon fill="#FFFFFF" points="794.5,529.9 1272.8,529.9 1290.6,331.2 794.5,331.2 	"/>
	<polygon fill="#FFFFFF" points="794.5,733.3 1254.8,733.3 1200.2,1343.3 794.5,1456.2 794.5,1249.5 1014.5,1189.7 1037.6,932 
		792.9,932 	"/>
</g>
<g>
	<polygon fill="#EBEBEB" points="295.3,331.2 794.5,331.2 794.5,529.9 512.5,529.9 530.7,733.3 794.5,733.3 794.5,932 348.9,932 	
		"/>
	<polygon fill="#EBEBEB" points="357.8,1031.4 557.3,1031.4 571.4,1189.8 794.5,1249.5 794.5,1456.3 385.6,1343.3 	"/>
</g>
</svg>
